<?xml version="1.0" encoding="UTF-8"?>
<svg width="512" height="512" viewBox="0 0 512 512" fill="none" xmlns="http://www.w3.org/2000/svg">
  <rect width="512" height="512" rx="256" fill="#2AABEE"/>
  <path d="M384 176c0-26.51-21.49-48-48-48H176c-26.51 0-48 21.49-48 48v192c0 26.51 21.49 48 48 48h160c26.51 0 48-21.49 48-48V176z" fill="white"/>
  <path d="M256 288c-17.67 0-32-14.33-32-32s14.33-32 32-32 32 14.33 32 32-14.33 32-32 32zm-64-32c0-35.35 28.65-64 64-64s64 28.65 64 64-28.65 64-64 64-64-28.65-64-64z" fill="#2AABEE"/>
</svg> 